<svg width="164" height="27" viewBox="0 0 164 27" fill="none" xmlns="http://www.w3.org/2000/svg">
<path fill-rule="evenodd" clip-rule="evenodd" d="M18.3882 20.9551C14.7088 24.2587 9.65148 26.5096 4.14251 26.5096H0V22.1983H4.14251C8.48938 22.1983 12.552 20.413 15.5284 17.7405C18.5286 15.0468 20.5219 10.8063 20.5219 7.69325H24.8134C24.8134 12.3402 22.044 17.6727 18.3882 20.9551Z" fill="#FF13B8"/>
<path d="M153.151 16.7219V26.4827H148.585V9.51343H153.014V11.6173C154.044 9.85833 156.069 9.06506 157.889 9.06506C162.077 9.06506 164 12.0657 164 15.7907V26.4827H159.434V16.5839C159.434 14.687 158.507 13.2039 156.31 13.2039C154.318 13.2039 153.151 14.756 153.151 16.7219Z" fill="#020106"/>
<path d="M137.178 22.8267C139.41 22.8267 141.469 21.2056 141.469 17.998C141.469 14.7904 139.41 13.1694 137.178 13.1694C134.946 13.1694 132.886 14.7904 132.886 17.998C132.886 21.1711 134.946 22.8267 137.178 22.8267ZM137.178 8.99606C142.225 8.99606 146.036 12.7555 146.036 17.998C146.036 23.2061 142.225 27 137.178 27C132.131 27 128.32 23.2061 128.32 17.998C128.32 12.7555 132.131 8.99606 137.178 8.99606Z" fill="#020106"/>
<path d="M125.724 26.4827H121.157V9.51344H125.724V26.4827ZM120.608 3.96049C120.608 2.37394 121.878 1.0978 123.423 1.0978C125.003 1.0978 126.239 2.37394 126.239 3.96049C126.239 5.47807 125.003 6.75421 123.423 6.75421C121.878 6.75421 120.608 5.47807 120.608 3.96049Z" fill="#020106"/>
<path d="M114.355 4.44336V9.51344H117.754V13.5833H114.355V20.6883C114.355 22.1714 115.042 22.6542 116.346 22.6542C116.896 22.6542 117.514 22.5853 117.754 22.5163V26.3102C117.342 26.4827 116.518 26.7241 115.179 26.7241C111.883 26.7241 109.823 24.7582 109.823 21.4816V13.5833H106.768V9.51344H107.626C109.411 9.51344 110.235 8.34076 110.235 6.82319V4.44336H114.355Z" fill="#020106"/>
<path d="M105.126 9.51342L98.3628 16.6529L105.264 26.4827H99.6674L95.2042 19.9985L93.316 21.9989V26.4827H88.7498V1.51166H93.316V15.8251L99.1524 9.51342H105.126Z" fill="#020106"/>
<path d="M74.2693 16.0666H81.8223C81.7537 14.3765 80.6551 12.721 78.0458 12.721C75.6769 12.721 74.3723 14.5145 74.2693 16.0666ZM82.2687 20.4813L86.0795 21.6195C85.2212 24.5512 82.5433 27 78.3891 27C73.7543 27 69.6688 23.6544 69.6688 17.9291C69.6688 12.5141 73.6513 8.99606 77.9772 8.99606C83.1956 8.99606 86.3198 12.3416 86.3198 17.7911C86.3198 18.4464 86.2512 19.1362 86.2512 19.2052H74.1663C74.2693 21.4471 76.1576 23.0681 78.4235 23.0681C80.5521 23.0681 81.7194 21.9989 82.2687 20.4813Z" fill="#020106"/>
<path d="M67.2115 26.4827H62.6454V1.51166H67.2115V26.4827Z" fill="#020106"/>
<path d="M57.9073 5.30561C56.8773 5.30561 55.5384 5.75398 55.5384 7.65095V9.51343H59.3493V13.4453H55.5384V26.4827H50.9379V13.4453H48.1227V9.51343H50.9379V7.58197C50.9379 3.75355 53.3411 1.27024 57.0833 1.27024C58.0446 1.27024 58.9716 1.44269 59.3493 1.61515V5.47806C59.1089 5.40908 58.6626 5.30561 57.9073 5.30561Z" fill="#020106"/>
<path d="M34.6008 16.7219V26.4827H30.0347V9.51343H34.4635V11.6173C35.4935 9.85833 37.519 9.06506 39.3386 9.06506C43.5271 9.06506 45.4497 12.0657 45.4497 15.7907V26.4827H40.8836V16.5839C40.8836 14.687 39.9566 13.2039 37.7594 13.2039C35.7681 13.2039 34.6008 14.756 34.6008 16.7219Z" fill="#020106"/>
<path d="M25.3202 26.4827H20.5137V7.68518H25.3202V26.4827Z" fill="#020106"/>
<path d="M25.8751 2.87622C25.8751 4.46472 24.5931 5.75245 23.0118 5.75245C21.4304 5.75245 20.1485 4.46472 20.1485 2.87622C20.1485 1.28773 21.4304 0 23.0118 0C24.5931 0 25.8751 1.28773 25.8751 2.87622Z" fill="#FF13B8"/>
</svg>
