<svg width="24" height="24" viewBox="0 0 24 24" fill="none" xmlns="http://www.w3.org/2000/svg">
<path d="M19 0H5C3.67441 0.00158786 2.40356 0.528882 1.46622 1.46622C0.528882 2.40356 0.00158786 3.67441 0 5V19C0.00158786 20.3256 0.528882 21.5964 1.46622 22.5338C2.40356 23.4711 3.67441 23.9984 5 24H19C20.3256 23.9984 21.5964 23.4711 22.5338 22.5338C23.4711 21.5964 23.9984 20.3256 24 19V5C23.9984 3.67441 23.4711 2.40356 22.5338 1.46622C21.5964 0.528882 20.3256 0.00158786 19 0ZM22 19C22 19.7956 21.6839 20.5587 21.1213 21.1213C20.5587 21.6839 19.7956 22 19 22H5C4.20435 22 3.44129 21.6839 2.87868 21.1213C2.31607 20.5587 2 19.7956 2 19V5C2 4.20435 2.31607 3.44129 2.87868 2.87868C3.44129 2.31607 4.20435 2 5 2H19C19.7956 2 20.5587 2.31607 21.1213 2.87868C21.6839 3.44129 22 4.20435 22 5V19Z" fill="#031050" fill-opacity="0.5"/>
<path fill-rule="evenodd" clip-rule="evenodd" d="M18.2556 7.24378C18.5812 7.56906 18.5815 8.09669 18.2562 8.42229L9.92288 16.764C9.76663 16.9204 9.55463 17.0083 9.33354 17.0083C9.11246 17.0084 8.90041 16.9206 8.74408 16.7643L6.24408 14.2643C5.91864 13.9388 5.91864 13.4112 6.24408 13.0857C6.56951 12.7603 7.09715 12.7603 7.42259 13.0857L9.33304 14.9962L17.0771 7.24437C17.4024 6.91877 17.93 6.91851 18.2556 7.24378Z" fill="#031050" fill-opacity="0.5"/>
</svg>
