<svg width="9" height="8" viewBox="0 0 9 8" fill="none" xmlns="http://www.w3.org/2000/svg">
<path d="M3.31579 1.33349H8.52632C8.65194 1.33349 8.77243 1.28667 8.86126 1.20332C8.95009 1.11997 9 1.00692 9 0.889043C9 0.771167 8.95009 0.658119 8.86126 0.574768C8.77243 0.491418 8.65194 0.444591 8.52632 0.444591H3.31579C3.19016 0.444591 3.06968 0.491417 2.98085 0.574768C2.89201 0.658119 2.84211 0.771167 2.84211 0.889043C2.84211 1.00692 2.89201 1.11997 2.98085 1.20332C3.06968 1.28667 3.19016 1.33349 3.31579 1.33349Z" fill="white"/>
<path d="M8.52632 3.55549L3.31579 3.55549C3.19016 3.55549 3.06968 3.60231 2.98085 3.68567C2.89201 3.76902 2.84211 3.88207 2.84211 3.99994C2.84211 4.11782 2.89201 4.23087 2.98085 4.31422C3.06968 4.39757 3.19016 4.4444 3.31579 4.4444L8.52632 4.4444C8.65194 4.4444 8.77243 4.39757 8.86126 4.31422C8.95009 4.23087 9 4.11782 9 3.99994C9 3.88207 8.95009 3.76902 8.86126 3.68567C8.77243 3.60231 8.65194 3.55549 8.52632 3.55549Z" fill="white"/>
<path d="M8.52632 6.66679L3.31579 6.66679C3.19016 6.66679 3.06968 6.71362 2.98085 6.79697C2.89201 6.88032 2.84211 6.99337 2.84211 7.11124C2.84211 7.22912 2.89201 7.34217 2.98085 7.42552C3.06968 7.50887 3.19016 7.5557 3.31579 7.5557L8.52632 7.5557C8.65194 7.5557 8.77243 7.50887 8.86126 7.42552C8.95009 7.34217 9 7.22912 9 7.11125C9 6.99337 8.95009 6.88032 8.86126 6.79697C8.77243 6.71362 8.65194 6.66679 8.52632 6.66679Z" fill="white"/>
<path d="M0.947368 1.77781C1.47059 1.77781 1.89474 1.37983 1.89474 0.888903C1.89474 0.397976 1.47059 0 0.947368 0C0.424151 0 0 0.397976 0 0.888903C0 1.37983 0.424151 1.77781 0.947368 1.77781Z" fill="white"/>
<path d="M0.947368 4.88911C1.47059 4.88911 1.89474 4.49114 1.89474 4.00021C1.89474 3.50928 1.47059 3.11131 0.947368 3.11131C0.424151 3.11131 0 3.50928 0 4.00021C0 4.49114 0.424151 4.88911 0.947368 4.88911Z" fill="white"/>
<path d="M0.947368 8C1.47059 8 1.89474 7.60203 1.89474 7.1111C1.89474 6.62017 1.47059 6.2222 0.947368 6.2222C0.424151 6.2222 0 6.62017 0 7.1111C0 7.60203 0.424151 8 0.947368 8Z" fill="white"/>
</svg>
