<svg width="5" height="3" viewBox="0 0 5 3" fill="none" xmlns="http://www.w3.org/2000/svg">
<path d="M0.379525 0H4.62048C4.69554 1.66987e-05 4.76892 0.02322 4.83133 0.0666766C4.89374 0.110133 4.94238 0.171892 4.97111 0.244146C4.99983 0.316399 5.00735 0.395903 4.99271 0.472607C4.97807 0.54931 4.94193 0.61977 4.88886 0.675078L2.76838 2.88421C2.69719 2.95835 2.60066 3 2.5 3C2.39934 3 2.30281 2.95835 2.23162 2.88421L0.111143 0.675078C0.058071 0.61977 0.0219302 0.54931 0.00728972 0.472607C-0.00735073 0.395903 0.000166693 0.316399 0.0288914 0.244146C0.0576162 0.171892 0.106259 0.110133 0.168669 0.0666766C0.23108 0.02322 0.304457 1.66987e-05 0.379525 0Z" fill="#F8FCFF"/>
</svg>
