<svg width="16" height="14" viewBox="0 0 16 14" fill="none" xmlns="http://www.w3.org/2000/svg">
<path d="M6.42763 9.46319C7.30269 10.3267 8.72185 10.3271 9.59747 9.46419L11.9975 7.09737C12.2743 6.79556 12.2505 6.32962 11.9444 6.05671C11.6595 5.80262 11.2255 5.80307 10.9411 6.05774L8.75498 8.21433L8.7602 0.736811C8.76017 0.329862 8.42567 0 8.01304 0C7.60041 0 7.26592 0.329862 7.26592 0.736776L7.25919 8.20031L5.08503 6.05774C4.79309 5.77005 4.31994 5.77022 4.02821 6.05812C3.73648 6.34602 3.73665 6.81262 4.02859 7.10031L6.42763 9.46319Z" fill="white"/>
<path d="M15.2381 7.77777C14.8173 7.77777 14.4762 8.12598 14.4762 8.55553V11.6667C14.4762 12.0962 14.1351 12.4444 13.7143 12.4444H2.28571C1.86493 12.4444 1.52382 12.0962 1.52382 11.6667V8.55557C1.52382 8.12602 1.18271 7.7778 0.761929 7.7778C0.341107 7.77777 0 8.12602 0 8.55557V11.6667C0 12.9553 1.02336 14 2.28571 14H13.7143C14.9766 14 16 12.9553 16 11.6667V8.55557C16 8.12602 15.6589 7.77777 15.2381 7.77777Z" fill="white"/>
</svg>
