<svg width="17" height="14" viewBox="0 0 17 14" fill="none" xmlns="http://www.w3.org/2000/svg">
<path d="M0 0.823529C0 0.368707 0.362436 0 0.809524 0H6.47619C6.92328 0 7.28571 0.368707 7.28571 0.823529C7.28571 1.27835 6.92328 1.64706 6.47619 1.64706H0.809524C0.362436 1.64706 0 1.27835 0 0.823529Z" fill="white"/>
<path d="M0 4.94118C0 4.48635 0.362436 4.11765 0.809524 4.11765H6.47619C6.92328 4.11765 7.28571 4.48635 7.28571 4.94118C7.28571 5.396 6.92328 5.76471 6.47619 5.76471H0.809524C0.362436 5.76471 0 5.396 0 4.94118Z" fill="white"/>
<path d="M0 9.05882C0 8.604 0.362436 8.23529 0.809524 8.23529H6.47619C6.92328 8.23529 7.28571 8.604 7.28571 9.05882C7.28571 9.51365 6.92328 9.88235 6.47619 9.88235H0.809524C0.362436 9.88235 0 9.51365 0 9.05882Z" fill="white"/>
<path d="M0 13.1765C0 12.7216 0.362436 12.3529 0.809524 12.3529H6.47619C6.92328 12.3529 7.28571 12.7216 7.28571 13.1765C7.28571 13.6313 6.92328 14 6.47619 14H0.809524C0.362436 14 0 13.6313 0 13.1765Z" fill="white"/>
<path d="M9.71429 0.823529C9.71429 0.368707 10.0767 0 10.5238 0H16.1905C16.6376 0 17 0.368707 17 0.823529C17 1.27835 16.6376 1.64706 16.1905 1.64706H10.5238C10.0767 1.64706 9.71429 1.27835 9.71429 0.823529Z" fill="white"/>
<path d="M9.71429 4.94118C9.71429 4.48635 10.0767 4.11765 10.5238 4.11765H16.1905C16.6376 4.11765 17 4.48635 17 4.94118C17 5.396 16.6376 5.76471 16.1905 5.76471H10.5238C10.0767 5.76471 9.71429 5.396 9.71429 4.94118Z" fill="white"/>
<path d="M9.71429 9.05882C9.71429 8.604 10.0767 8.23529 10.5238 8.23529H16.1905C16.6376 8.23529 17 8.604 17 9.05882C17 9.51365 16.6376 9.88235 16.1905 9.88235H10.5238C10.0767 9.88235 9.71429 9.51365 9.71429 9.05882Z" fill="white"/>
<path d="M9.71429 13.1765C9.71429 12.7216 10.0767 12.3529 10.5238 12.3529H16.1905C16.6376 12.3529 17 12.7216 17 13.1765C17 13.6313 16.6376 14 16.1905 14H10.5238C10.0767 14 9.71429 13.6313 9.71429 13.1765Z" fill="white"/>
</svg>
