<svg width="17" height="11" viewBox="0 0 17 11" fill="none" xmlns="http://www.w3.org/2000/svg">
<g clip-path="url(#clip0_450_134)">
<path fill-rule="evenodd" clip-rule="evenodd" d="M1.19981 0.0300802C0.629884 0.1331 0.145412 0.588239 0.0349585 1.12443C-0.0116528 1.35057 -0.0116528 9.64528 0.0349585 9.87143C0.148034 10.4203 0.629552 10.8635 1.22581 10.9676C1.47294 11.0108 15.5271 11.0108 15.7742 10.9676C16.3704 10.8635 16.852 10.4203 16.965 9.87143C17.0117 9.64528 17.0117 1.35057 16.965 1.12443C16.852 0.575557 16.3704 0.132306 15.7742 0.0282161C15.552 -0.0105959 1.41474 -0.00879293 1.19981 0.0300802ZM12.3682 3.59158C10.3774 5.41456 9.38897 6.29871 9.26414 6.36838C8.79889 6.628 8.20111 6.628 7.73586 6.36838C7.61103 6.29871 6.62263 5.41456 4.63175 3.59158L1.71081 0.917011H8.5H15.2892L12.3682 3.59158ZM3.96821 4.27355L5.29603 5.49796L3.63622 7.02794C2.72331 7.86943 1.75603 8.75117 1.48672 8.98734L0.997032 9.41672V5.4978V1.57889L1.81871 2.314C2.27064 2.71831 3.2379 3.60011 3.96821 4.27355ZM15.9949 7.46145L15.9864 9.42497L13.845 7.4608L11.7037 5.49661L13.845 3.53593L15.9864 1.57526L15.9949 3.53661C15.9996 4.61534 15.9996 6.3815 15.9949 7.46145ZM6.3593 6.47764C6.9601 7.03497 7.30819 7.25684 7.80282 7.39773C8.01124 7.45711 8.12485 7.46866 8.5 7.46866C9.0104 7.46866 9.27662 7.41145 9.66196 7.21907C9.94734 7.07657 10.0981 6.96306 10.5819 6.52641L10.9872 6.16057L11.777 6.86634C12.2114 7.25449 13.1793 8.13684 13.9279 8.82705L15.2889 10.082L8.49983 10.0807L1.71081 10.0794L3.8458 8.12483C5.02005 7.04983 5.99142 6.17026 6.00437 6.17026C6.01731 6.17026 6.17703 6.30858 6.3593 6.47764Z" fill="white"/>
</g>
<defs>
<clipPath id="clip0_450_134">
<rect width="17" height="11" fill="white"/>
</clipPath>
</defs>
</svg>
