<svg width="5" height="3" viewBox="0 0 5 3" fill="none" xmlns="http://www.w3.org/2000/svg">
<path d="M4.62048 3L0.379524 3C0.304457 2.99998 0.231081 2.97678 0.16867 2.93332C0.106259 2.88987 0.0576162 2.82811 0.0288916 2.75585C0.000166921 2.6836 -0.00735041 2.6041 0.00728993 2.52739C0.0219303 2.45069 0.0580717 2.38023 0.111144 2.32492L2.23162 0.11579C2.30281 0.0416501 2.39934 -2.27357e-07 2.5 -2.18557e-07C2.60066 -2.09757e-07 2.69719 0.0416501 2.76838 0.11579L4.88886 2.32492C4.94193 2.38023 4.97807 2.45069 4.99271 2.52739C5.00735 2.6041 4.99983 2.6836 4.97111 2.75585C4.94238 2.82811 4.89374 2.88987 4.83133 2.93332C4.76892 2.97678 4.69554 2.99998 4.62048 3Z" fill="#F8FCFF"/>
</svg>
